<?xml version="1.0" encoding="utf-8" standalone="no"?>
<!DOCTYPE svg PUBLIC "-//W3C//DTD SVG 1.1//EN"
  "http://www.w3.org/Graphics/SVG/1.1/DTD/svg11.dtd">
<!-- Created with matplotlib (http://matplotlib.org/) -->
<svg height="345pt" version="1.1" viewBox="0 0 460 345" width="460pt" xmlns="http://www.w3.org/2000/svg" xmlns:xlink="http://www.w3.org/1999/xlink">
 <defs>
  <style type="text/css">
*{stroke-linecap:butt;stroke-linejoin:round;}
  </style>
 </defs>
 <g id="figure_1">
  <g id="patch_1">
   <path d="M 0 345.6 
L 460.8 345.6 
L 460.8 0 
L 0 0 
z
" style="fill:#ffffff;"/>
  </g>
  <g id="axes_1">
   <g id="patch_2">
    <path d="M 57.6 307.584 
L 414.72 307.584 
L 414.72 41.472 
L 57.6 41.472 
z
" style="fill:#ffffff;"/>
   </g>
   <g id="PolyCollection_1">
    <path clip-path="url(#pd13e30956d)" d="M 73.832727 296.496 
L 73.832727 307.584 
L 97.022338 307.584 
L 120.211948 307.584 
L 143.401558 307.584 
L 166.591169 307.584 
L 189.780779 307.584 
L 212.97039 307.584 
L 236.16 307.584 
L 259.34961 307.584 
L 282.539221 307.584 
L 305.728831 307.584 
L 328.918442 307.584 
L 352.108052 307.584 
L 375.297662 307.584 
L 398.487273 307.584 
L 398.487273 301.248 
L 398.487273 301.248 
L 375.297662 302.832 
L 352.108052 301.248 
L 328.918442 302.832 
L 305.728831 301.248 
L 282.539221 302.832 
L 259.34961 301.248 
L 236.16 302.832 
L 212.97039 301.248 
L 189.780779 302.832 
L 166.591169 301.248 
L 143.401558 301.248 
L 120.211948 302.832 
L 97.022338 304.416 
L 73.832727 296.496 
z
" style="fill:#1f77b4;"/>
   </g>
   <g id="PolyCollection_2">
    <path clip-path="url(#pd13e30956d)" d="M 73.832727 283.824 
L 73.832727 296.496 
L 97.022338 304.416 
L 120.211948 302.832 
L 143.401558 301.248 
L 166.591169 301.248 
L 189.780779 302.832 
L 212.97039 301.248 
L 236.16 302.832 
L 259.34961 301.248 
L 282.539221 302.832 
L 305.728831 301.248 
L 328.918442 302.832 
L 352.108052 301.248 
L 375.297662 302.832 
L 398.487273 301.248 
L 398.487273 296.496 
L 398.487273 296.496 
L 375.297662 298.08 
L 352.108052 294.912 
L 328.918442 298.08 
L 305.728831 294.912 
L 282.539221 298.08 
L 259.34961 294.912 
L 236.16 298.08 
L 212.97039 298.08 
L 189.780779 301.248 
L 166.591169 280.656 
L 143.401558 267.984 
L 120.211948 293.328 
L 97.022338 282.24 
L 73.832727 283.824 
z
" style="fill:#ff7f0e;"/>
   </g>
   <g id="PolyCollection_3">
    <path clip-path="url(#pd13e30956d)" d="M 73.832727 277.488 
L 73.832727 283.824 
L 97.022338 282.24 
L 120.211948 293.328 
L 143.401558 267.984 
L 166.591169 280.656 
L 189.780779 301.248 
L 212.97039 298.08 
L 236.16 298.08 
L 259.34961 294.912 
L 282.539221 298.08 
L 305.728831 294.912 
L 328.918442 298.08 
L 352.108052 294.912 
L 375.297662 298.08 
L 398.487273 296.496 
L 398.487273 291.744 
L 398.487273 291.744 
L 375.297662 291.744 
L 352.108052 290.16 
L 328.918442 291.744 
L 305.728831 290.16 
L 282.539221 291.744 
L 259.34961 290.16 
L 236.16 291.744 
L 212.97039 293.328 
L 189.780779 294.912 
L 166.591169 275.904 
L 143.401558 261.648 
L 120.211948 288.576 
L 97.022338 279.072 
L 73.832727 277.488 
z
" style="fill:#2ca02c;"/>
   </g>
   <g id="PolyCollection_4">
    <path clip-path="url(#pd13e30956d)" d="M 73.832727 261.648 
L 73.832727 277.488 
L 97.022338 279.072 
L 120.211948 288.576 
L 143.401558 261.648 
L 166.591169 275.904 
L 189.780779 294.912 
L 212.97039 293.328 
L 236.16 291.744 
L 259.34961 290.16 
L 282.539221 291.744 
L 305.728831 290.16 
L 328.918442 291.744 
L 352.108052 290.16 
L 375.297662 291.744 
L 398.487273 291.744 
L 398.487273 285.408 
L 398.487273 285.408 
L 375.297662 286.992 
L 352.108052 283.824 
L 328.918442 286.992 
L 305.728831 283.824 
L 282.539221 286.992 
L 259.34961 283.824 
L 236.16 286.992 
L 212.97039 286.992 
L 189.780779 290.16 
L 166.591169 269.568 
L 143.401558 256.896 
L 120.211948 282.24 
L 97.022338 274.32 
L 73.832727 261.648 
z
" style="fill:#d62728;"/>
   </g>
   <g id="PolyCollection_5">
    <path clip-path="url(#pd13e30956d)" d="M 73.832727 237.888 
L 73.832727 261.648 
L 97.022338 274.32 
L 120.211948 282.24 
L 143.401558 256.896 
L 166.591169 269.568 
L 189.780779 290.16 
L 212.97039 286.992 
L 236.16 286.992 
L 259.34961 283.824 
L 282.539221 286.992 
L 305.728831 283.824 
L 328.918442 286.992 
L 352.108052 283.824 
L 375.297662 286.992 
L 398.487273 285.408 
L 398.487273 280.656 
L 398.487273 280.656 
L 375.297662 280.656 
L 352.108052 279.072 
L 328.918442 280.656 
L 305.728831 279.072 
L 282.539221 280.656 
L 259.34961 279.072 
L 236.16 280.656 
L 212.97039 282.24 
L 189.780779 283.824 
L 166.591169 264.816 
L 143.401558 253.728 
L 120.211948 275.904 
L 97.022338 263.232 
L 73.832727 237.888 
z
" style="fill:#9467bd;"/>
   </g>
   <g id="PolyCollection_6">
    <path clip-path="url(#pd13e30956d)" d="M 73.832727 223.632 
L 73.832727 237.888 
L 97.022338 263.232 
L 120.211948 275.904 
L 143.401558 253.728 
L 166.591169 264.816 
L 189.780779 283.824 
L 212.97039 282.24 
L 236.16 280.656 
L 259.34961 279.072 
L 282.539221 280.656 
L 305.728831 279.072 
L 328.918442 280.656 
L 352.108052 279.072 
L 375.297662 280.656 
L 398.487273 280.656 
L 398.487273 274.32 
L 398.487273 274.32 
L 375.297662 275.904 
L 352.108052 272.736 
L 328.918442 275.904 
L 305.728831 272.736 
L 282.539221 274.32 
L 259.34961 274.32 
L 236.16 275.904 
L 212.97039 279.072 
L 189.780779 279.072 
L 166.591169 261.648 
L 143.401558 252.144 
L 120.211948 269.568 
L 97.022338 187.2 
L 73.832727 223.632 
z
" style="fill:#8c564b;"/>
   </g>
   <g id="PolyCollection_7">
    <path clip-path="url(#pd13e30956d)" d="M 73.832727 206.208 
L 73.832727 223.632 
L 97.022338 187.2 
L 120.211948 269.568 
L 143.401558 252.144 
L 166.591169 261.648 
L 189.780779 279.072 
L 212.97039 279.072 
L 236.16 275.904 
L 259.34961 274.32 
L 282.539221 274.32 
L 305.728831 272.736 
L 328.918442 275.904 
L 352.108052 272.736 
L 375.297662 275.904 
L 398.487273 274.32 
L 398.487273 267.984 
L 398.487273 267.984 
L 375.297662 269.568 
L 352.108052 267.984 
L 328.918442 269.568 
L 305.728831 267.984 
L 282.539221 267.984 
L 259.34961 269.568 
L 236.16 269.568 
L 212.97039 274.32 
L 189.780779 275.904 
L 166.591169 258.48 
L 143.401558 250.56 
L 120.211948 252.144 
L 97.022338 182.448 
L 73.832727 206.208 
z
" style="fill:#e377c2;"/>
   </g>
   <g id="PolyCollection_8">
    <path clip-path="url(#pd13e30956d)" d="M 73.832727 203.04 
L 73.832727 206.208 
L 97.022338 182.448 
L 120.211948 252.144 
L 143.401558 250.56 
L 166.591169 258.48 
L 189.780779 275.904 
L 212.97039 274.32 
L 236.16 269.568 
L 259.34961 269.568 
L 282.539221 267.984 
L 305.728831 267.984 
L 328.918442 269.568 
L 352.108052 267.984 
L 375.297662 269.568 
L 398.487273 267.984 
L 398.487273 261.648 
L 398.487273 261.648 
L 375.297662 264.816 
L 352.108052 261.648 
L 328.918442 264.816 
L 305.728831 261.648 
L 282.539221 263.232 
L 259.34961 263.232 
L 236.16 264.816 
L 212.97039 267.984 
L 189.780779 271.152 
L 166.591169 255.312 
L 143.401558 248.976 
L 120.211948 247.392 
L 97.022338 180.864 
L 73.832727 203.04 
z
" style="fill:#7f7f7f;"/>
   </g>
   <g id="PolyCollection_9">
    <path clip-path="url(#pd13e30956d)" d="M 73.832727 185.616 
L 73.832727 203.04 
L 97.022338 180.864 
L 120.211948 247.392 
L 143.401558 248.976 
L 166.591169 255.312 
L 189.780779 271.152 
L 212.97039 267.984 
L 236.16 264.816 
L 259.34961 263.232 
L 282.539221 263.232 
L 305.728831 261.648 
L 328.918442 264.816 
L 352.108052 261.648 
L 375.297662 264.816 
L 398.487273 261.648 
L 398.487273 256.896 
L 398.487273 256.896 
L 375.297662 258.48 
L 352.108052 256.896 
L 328.918442 258.48 
L 305.728831 256.896 
L 282.539221 256.896 
L 259.34961 258.48 
L 236.16 258.48 
L 212.97039 263.232 
L 189.780779 264.816 
L 166.591169 250.56 
L 143.401558 245.808 
L 120.211948 241.056 
L 97.022338 174.528 
L 73.832727 185.616 
z
" style="fill:#bcbd22;"/>
   </g>
   <g id="PolyCollection_10">
    <path clip-path="url(#pd13e30956d)" d="M 73.832727 172.944 
L 73.832727 185.616 
L 97.022338 174.528 
L 120.211948 241.056 
L 143.401558 245.808 
L 166.591169 250.56 
L 189.780779 264.816 
L 212.97039 263.232 
L 236.16 258.48 
L 259.34961 258.48 
L 282.539221 256.896 
L 305.728831 256.896 
L 328.918442 258.48 
L 352.108052 256.896 
L 375.297662 258.48 
L 398.487273 256.896 
L 398.487273 250.56 
L 398.487273 250.56 
L 375.297662 253.728 
L 352.108052 250.56 
L 328.918442 253.728 
L 305.728831 250.56 
L 282.539221 252.144 
L 259.34961 252.144 
L 236.16 253.728 
L 212.97039 256.896 
L 189.780779 260.064 
L 166.591169 247.392 
L 143.401558 244.224 
L 120.211948 234.72 
L 97.022338 171.36 
L 73.832727 172.944 
z
" style="fill:#17becf;"/>
   </g>
   <g id="PolyCollection_11">
    <path clip-path="url(#pd13e30956d)" d="M 73.832727 169.776 
L 73.832727 172.944 
L 97.022338 171.36 
L 120.211948 234.72 
L 143.401558 244.224 
L 166.591169 247.392 
L 189.780779 260.064 
L 212.97039 256.896 
L 236.16 253.728 
L 259.34961 252.144 
L 282.539221 252.144 
L 305.728831 250.56 
L 328.918442 253.728 
L 352.108052 250.56 
L 375.297662 253.728 
L 398.487273 250.56 
L 398.487273 245.808 
L 398.487273 245.808 
L 375.297662 247.392 
L 352.108052 245.808 
L 328.918442 247.392 
L 305.728831 245.808 
L 282.539221 245.808 
L 259.34961 247.392 
L 236.16 247.392 
L 212.97039 252.144 
L 189.780779 253.728 
L 166.591169 242.64 
L 143.401558 237.888 
L 120.211948 229.968 
L 97.022338 168.192 
L 73.832727 169.776 
z
" style="fill:#1f77b4;"/>
   </g>
   <g id="PolyCollection_12">
    <path clip-path="url(#pd13e30956d)" d="M 73.832727 160.272 
L 73.832727 169.776 
L 97.022338 168.192 
L 120.211948 229.968 
L 143.401558 237.888 
L 166.591169 242.64 
L 189.780779 253.728 
L 212.97039 252.144 
L 236.16 247.392 
L 259.34961 247.392 
L 282.539221 245.808 
L 305.728831 245.808 
L 328.918442 247.392 
L 352.108052 245.808 
L 375.297662 247.392 
L 398.487273 245.808 
L 398.487273 241.056 
L 398.487273 241.056 
L 375.297662 241.056 
L 352.108052 241.056 
L 328.918442 241.056 
L 305.728831 241.056 
L 282.539221 239.472 
L 259.34961 242.64 
L 236.16 241.056 
L 212.97039 247.392 
L 189.780779 247.392 
L 166.591169 237.888 
L 143.401558 231.552 
L 120.211948 222.048 
L 97.022338 149.184 
L 73.832727 160.272 
z
" style="fill:#ff7f0e;"/>
   </g>
   <g id="PolyCollection_13">
    <path clip-path="url(#pd13e30956d)" d="M 73.832727 155.52 
L 73.832727 160.272 
L 97.022338 149.184 
L 120.211948 222.048 
L 143.401558 231.552 
L 166.591169 237.888 
L 189.780779 247.392 
L 212.97039 247.392 
L 236.16 241.056 
L 259.34961 242.64 
L 282.539221 239.472 
L 305.728831 241.056 
L 328.918442 241.056 
L 352.108052 241.056 
L 375.297662 241.056 
L 398.487273 241.056 
L 398.487273 234.72 
L 398.487273 234.72 
L 375.297662 236.304 
L 352.108052 234.72 
L 328.918442 236.304 
L 305.728831 234.72 
L 282.539221 234.72 
L 259.34961 236.304 
L 236.16 236.304 
L 212.97039 241.056 
L 189.780779 242.64 
L 166.591169 234.72 
L 143.401558 226.8 
L 120.211948 215.712 
L 97.022338 147.6 
L 73.832727 155.52 
z
" style="fill:#2ca02c;"/>
   </g>
   <g id="PolyCollection_14">
    <path clip-path="url(#pd13e30956d)" d="M 73.832727 150.768 
L 73.832727 155.52 
L 97.022338 147.6 
L 120.211948 215.712 
L 143.401558 226.8 
L 166.591169 234.72 
L 189.780779 242.64 
L 212.97039 241.056 
L 236.16 236.304 
L 259.34961 236.304 
L 282.539221 234.72 
L 305.728831 234.72 
L 328.918442 236.304 
L 352.108052 234.72 
L 375.297662 236.304 
L 398.487273 234.72 
L 398.487273 229.968 
L 398.487273 229.968 
L 375.297662 229.968 
L 352.108052 229.968 
L 328.918442 229.968 
L 305.728831 229.968 
L 282.539221 228.384 
L 259.34961 231.552 
L 236.16 229.968 
L 212.97039 236.304 
L 189.780779 236.304 
L 166.591169 229.968 
L 143.401558 223.632 
L 120.211948 209.376 
L 97.022338 146.016 
L 73.832727 150.768 
z
" style="fill:#d62728;"/>
   </g>
   <g id="PolyCollection_15">
    <path clip-path="url(#pd13e30956d)" d="M 73.832727 146.016 
L 73.832727 150.768 
L 97.022338 146.016 
L 120.211948 209.376 
L 143.401558 223.632 
L 166.591169 229.968 
L 189.780779 236.304 
L 212.97039 236.304 
L 236.16 229.968 
L 259.34961 231.552 
L 282.539221 228.384 
L 305.728831 229.968 
L 328.918442 229.968 
L 352.108052 229.968 
L 375.297662 229.968 
L 398.487273 229.968 
L 398.487273 223.632 
L 398.487273 223.632 
L 375.297662 225.216 
L 352.108052 223.632 
L 328.918442 225.216 
L 305.728831 223.632 
L 282.539221 223.632 
L 259.34961 225.216 
L 236.16 225.216 
L 212.97039 229.968 
L 189.780779 231.552 
L 166.591169 223.632 
L 143.401558 218.88 
L 120.211948 203.04 
L 97.022338 141.264 
L 73.832727 146.016 
z
" style="fill:#9467bd;"/>
   </g>
   <g id="PolyCollection_16">
    <path clip-path="url(#pd13e30956d)" d="M 73.832727 139.68 
L 73.832727 146.016 
L 97.022338 141.264 
L 120.211948 203.04 
L 143.401558 218.88 
L 166.591169 223.632 
L 189.780779 231.552 
L 212.97039 229.968 
L 236.16 225.216 
L 259.34961 225.216 
L 282.539221 223.632 
L 305.728831 223.632 
L 328.918442 225.216 
L 352.108052 223.632 
L 375.297662 225.216 
L 398.487273 223.632 
L 398.487273 217.296 
L 398.487273 217.296 
L 375.297662 220.464 
L 352.108052 217.296 
L 328.918442 220.464 
L 305.728831 217.296 
L 282.539221 218.88 
L 259.34961 218.88 
L 236.16 220.464 
L 212.97039 223.632 
L 189.780779 226.8 
L 166.591169 217.296 
L 143.401558 214.128 
L 120.211948 196.704 
L 97.022338 136.512 
L 73.832727 139.68 
z
" style="fill:#8c564b;"/>
   </g>
   <g id="PolyCollection_17">
    <path clip-path="url(#pd13e30956d)" d="M 73.832727 136.512 
L 73.832727 139.68 
L 97.022338 136.512 
L 120.211948 196.704 
L 143.401558 214.128 
L 166.591169 217.296 
L 189.780779 226.8 
L 212.97039 223.632 
L 236.16 220.464 
L 259.34961 218.88 
L 282.539221 218.88 
L 305.728831 217.296 
L 328.918442 220.464 
L 352.108052 217.296 
L 375.297662 220.464 
L 398.487273 217.296 
L 398.487273 212.544 
L 398.487273 212.544 
L 375.297662 214.128 
L 352.108052 212.544 
L 328.918442 214.128 
L 305.728831 212.544 
L 282.539221 212.544 
L 259.34961 215.712 
L 236.16 218.88 
L 212.97039 207.792 
L 189.780779 220.464 
L 166.591169 212.544 
L 143.401558 207.792 
L 120.211948 191.952 
L 97.022338 133.344 
L 73.832727 136.512 
z
" style="fill:#e377c2;"/>
   </g>
   <g id="PolyCollection_18">
    <path clip-path="url(#pd13e30956d)" d="M 73.832727 120.672 
L 73.832727 136.512 
L 97.022338 133.344 
L 120.211948 191.952 
L 143.401558 207.792 
L 166.591169 212.544 
L 189.780779 220.464 
L 212.97039 207.792 
L 236.16 218.88 
L 259.34961 215.712 
L 282.539221 212.544 
L 305.728831 212.544 
L 328.918442 214.128 
L 352.108052 212.544 
L 375.297662 214.128 
L 398.487273 212.544 
L 398.487273 206.208 
L 398.487273 206.208 
L 375.297662 209.376 
L 352.108052 206.208 
L 328.918442 209.376 
L 305.728831 206.208 
L 282.539221 207.792 
L 259.34961 209.376 
L 236.16 214.128 
L 212.97039 201.456 
L 189.780779 215.712 
L 166.591169 209.376 
L 143.401558 206.208 
L 120.211948 184.032 
L 97.022338 130.176 
L 73.832727 120.672 
z
" style="fill:#7f7f7f;"/>
   </g>
   <g id="PolyCollection_19">
    <path clip-path="url(#pd13e30956d)" d="M 73.832727 117.504 
L 73.832727 120.672 
L 97.022338 130.176 
L 120.211948 184.032 
L 143.401558 206.208 
L 166.591169 209.376 
L 189.780779 215.712 
L 212.97039 201.456 
L 236.16 214.128 
L 259.34961 209.376 
L 282.539221 207.792 
L 305.728831 206.208 
L 328.918442 209.376 
L 352.108052 206.208 
L 375.297662 209.376 
L 398.487273 206.208 
L 398.487273 201.456 
L 398.487273 201.456 
L 375.297662 203.04 
L 352.108052 201.456 
L 328.918442 203.04 
L 305.728831 201.456 
L 282.539221 204.624 
L 259.34961 207.792 
L 236.16 207.792 
L 212.97039 196.704 
L 189.780779 209.376 
L 166.591169 204.624 
L 143.401558 199.872 
L 120.211948 179.28 
L 97.022338 128.592 
L 73.832727 117.504 
z
" style="fill:#bcbd22;"/>
   </g>
   <g id="PolyCollection_20">
    <path clip-path="url(#pd13e30956d)" d="M 73.832727 115.92 
L 73.832727 117.504 
L 97.022338 128.592 
L 120.211948 179.28 
L 143.401558 199.872 
L 166.591169 204.624 
L 189.780779 209.376 
L 212.97039 196.704 
L 236.16 207.792 
L 259.34961 207.792 
L 282.539221 204.624 
L 305.728831 201.456 
L 328.918442 203.04 
L 352.108052 201.456 
L 375.297662 203.04 
L 398.487273 201.456 
L 398.487273 195.12 
L 398.487273 195.12 
L 375.297662 198.288 
L 352.108052 195.12 
L 328.918442 198.288 
L 305.728831 195.12 
L 282.539221 199.872 
L 259.34961 201.456 
L 236.16 203.04 
L 212.97039 190.368 
L 189.780779 204.624 
L 166.591169 198.288 
L 143.401558 195.12 
L 120.211948 172.944 
L 97.022338 123.84 
L 73.832727 115.92 
z
" style="fill:#17becf;"/>
   </g>
   <g id="PolyCollection_21">
    <path clip-path="url(#pd13e30956d)" d="M 73.832727 111.168 
L 73.832727 115.92 
L 97.022338 123.84 
L 120.211948 172.944 
L 143.401558 195.12 
L 166.591169 198.288 
L 189.780779 204.624 
L 212.97039 190.368 
L 236.16 203.04 
L 259.34961 201.456 
L 282.539221 199.872 
L 305.728831 195.12 
L 328.918442 198.288 
L 352.108052 195.12 
L 375.297662 198.288 
L 398.487273 195.12 
L 398.487273 190.368 
L 398.487273 190.368 
L 375.297662 191.952 
L 352.108052 190.368 
L 328.918442 191.952 
L 305.728831 190.368 
L 282.539221 193.536 
L 259.34961 196.704 
L 236.16 196.704 
L 212.97039 185.616 
L 189.780779 198.288 
L 166.591169 193.536 
L 143.401558 191.952 
L 120.211948 165.024 
L 97.022338 119.088 
L 73.832727 111.168 
z
" style="fill:#1f77b4;"/>
   </g>
   <g id="PolyCollection_22">
    <path clip-path="url(#pd13e30956d)" d="M 73.832727 108 
L 73.832727 111.168 
L 97.022338 119.088 
L 120.211948 165.024 
L 143.401558 191.952 
L 166.591169 193.536 
L 189.780779 198.288 
L 212.97039 185.616 
L 236.16 196.704 
L 259.34961 196.704 
L 282.539221 193.536 
L 305.728831 190.368 
L 328.918442 191.952 
L 352.108052 190.368 
L 375.297662 191.952 
L 398.487273 190.368 
L 398.487273 185.616 
L 398.487273 185.616 
L 375.297662 185.616 
L 352.108052 185.616 
L 328.918442 185.616 
L 305.728831 185.616 
L 282.539221 187.2 
L 259.34961 191.952 
L 236.16 190.368 
L 212.97039 180.864 
L 189.780779 191.952 
L 166.591169 188.784 
L 143.401558 185.616 
L 120.211948 160.272 
L 97.022338 115.92 
L 73.832727 108 
z
" style="fill:#ff7f0e;"/>
   </g>
   <g id="PolyCollection_23">
    <path clip-path="url(#pd13e30956d)" d="M 73.832727 100.08 
L 73.832727 108 
L 97.022338 115.92 
L 120.211948 160.272 
L 143.401558 185.616 
L 166.591169 188.784 
L 189.780779 191.952 
L 212.97039 180.864 
L 236.16 190.368 
L 259.34961 191.952 
L 282.539221 187.2 
L 305.728831 185.616 
L 328.918442 185.616 
L 352.108052 185.616 
L 375.297662 185.616 
L 398.487273 185.616 
L 398.487273 179.28 
L 398.487273 179.28 
L 375.297662 180.864 
L 352.108052 179.28 
L 328.918442 180.864 
L 305.728831 179.28 
L 282.539221 182.448 
L 259.34961 185.616 
L 236.16 185.616 
L 212.97039 177.696 
L 189.780779 184.032 
L 166.591169 184.032 
L 143.401558 179.28 
L 120.211948 155.52 
L 97.022338 114.336 
L 73.832727 100.08 
z
" style="fill:#2ca02c;"/>
   </g>
   <g id="PolyCollection_24">
    <path clip-path="url(#pd13e30956d)" d="M 73.832727 98.496 
L 73.832727 100.08 
L 97.022338 114.336 
L 120.211948 155.52 
L 143.401558 179.28 
L 166.591169 184.032 
L 189.780779 184.032 
L 212.97039 177.696 
L 236.16 185.616 
L 259.34961 185.616 
L 282.539221 182.448 
L 305.728831 179.28 
L 328.918442 180.864 
L 352.108052 179.28 
L 375.297662 180.864 
L 398.487273 179.28 
L 398.487273 172.944 
L 398.487273 172.944 
L 375.297662 176.112 
L 352.108052 172.944 
L 328.918442 176.112 
L 305.728831 172.944 
L 282.539221 177.696 
L 259.34961 179.28 
L 236.16 180.864 
L 212.97039 171.36 
L 189.780779 179.28 
L 166.591169 180.864 
L 143.401558 177.696 
L 120.211948 149.184 
L 97.022338 109.584 
L 73.832727 98.496 
z
" style="fill:#d62728;"/>
   </g>
   <g id="PolyCollection_25">
    <path clip-path="url(#pd13e30956d)" d="M 73.832727 95.328 
L 73.832727 98.496 
L 97.022338 109.584 
L 120.211948 149.184 
L 143.401558 177.696 
L 166.591169 180.864 
L 189.780779 179.28 
L 212.97039 171.36 
L 236.16 180.864 
L 259.34961 179.28 
L 282.539221 177.696 
L 305.728831 172.944 
L 328.918442 176.112 
L 352.108052 172.944 
L 375.297662 176.112 
L 398.487273 172.944 
L 398.487273 168.192 
L 398.487273 168.192 
L 375.297662 169.776 
L 352.108052 168.192 
L 328.918442 169.776 
L 305.728831 168.192 
L 282.539221 174.528 
L 259.34961 172.944 
L 236.16 176.112 
L 212.97039 166.608 
L 189.780779 172.944 
L 166.591169 176.112 
L 143.401558 171.36 
L 120.211948 144.432 
L 97.022338 108 
L 73.832727 95.328 
z
" style="fill:#9467bd;"/>
   </g>
   <g id="PolyCollection_26">
    <path clip-path="url(#pd13e30956d)" d="M 73.832727 93.744 
L 73.832727 95.328 
L 97.022338 108 
L 120.211948 144.432 
L 143.401558 171.36 
L 166.591169 176.112 
L 189.780779 172.944 
L 212.97039 166.608 
L 236.16 176.112 
L 259.34961 172.944 
L 282.539221 174.528 
L 305.728831 168.192 
L 328.918442 169.776 
L 352.108052 168.192 
L 375.297662 169.776 
L 398.487273 168.192 
L 398.487273 163.44 
L 398.487273 163.44 
L 375.297662 166.608 
L 352.108052 161.856 
L 328.918442 165.024 
L 305.728831 161.856 
L 282.539221 169.776 
L 259.34961 166.608 
L 236.16 171.36 
L 212.97039 160.272 
L 189.780779 168.192 
L 166.591169 169.776 
L 143.401558 166.608 
L 120.211948 138.096 
L 97.022338 103.248 
L 73.832727 93.744 
z
" style="fill:#8c564b;"/>
   </g>
   <g id="PolyCollection_27">
    <path clip-path="url(#pd13e30956d)" d="M 73.832727 92.16 
L 73.832727 93.744 
L 97.022338 103.248 
L 120.211948 138.096 
L 143.401558 166.608 
L 166.591169 169.776 
L 189.780779 168.192 
L 212.97039 160.272 
L 236.16 171.36 
L 259.34961 166.608 
L 282.539221 169.776 
L 305.728831 161.856 
L 328.918442 165.024 
L 352.108052 161.856 
L 375.297662 166.608 
L 398.487273 163.44 
L 398.487273 157.104 
L 398.487273 157.104 
L 375.297662 161.856 
L 352.108052 155.52 
L 328.918442 160.272 
L 305.728831 158.688 
L 282.539221 163.44 
L 259.34961 158.688 
L 236.16 166.608 
L 212.97039 157.104 
L 189.780779 150.768 
L 166.591169 163.44 
L 143.401558 161.856 
L 120.211948 131.76 
L 97.022338 98.496 
L 73.832727 92.16 
z
" style="fill:#e377c2;"/>
   </g>
   <g id="PolyCollection_28">
    <path clip-path="url(#pd13e30956d)" d="M 73.832727 88.992 
L 73.832727 92.16 
L 97.022338 98.496 
L 120.211948 131.76 
L 143.401558 161.856 
L 166.591169 163.44 
L 189.780779 150.768 
L 212.97039 157.104 
L 236.16 166.608 
L 259.34961 158.688 
L 282.539221 163.44 
L 305.728831 158.688 
L 328.918442 160.272 
L 352.108052 155.52 
L 375.297662 161.856 
L 398.487273 157.104 
L 398.487273 152.352 
L 398.487273 152.352 
L 375.297662 155.52 
L 352.108052 150.768 
L 328.918442 153.936 
L 305.728831 153.936 
L 282.539221 157.104 
L 259.34961 153.936 
L 236.16 160.272 
L 212.97039 152.352 
L 189.780779 144.432 
L 166.591169 158.688 
L 143.401558 155.52 
L 120.211948 127.008 
L 97.022338 96.912 
L 73.832727 88.992 
z
" style="fill:#7f7f7f;"/>
   </g>
   <g id="PolyCollection_29">
    <path clip-path="url(#pd13e30956d)" d="M 73.832727 84.24 
L 73.832727 88.992 
L 97.022338 96.912 
L 120.211948 127.008 
L 143.401558 155.52 
L 166.591169 158.688 
L 189.780779 144.432 
L 212.97039 152.352 
L 236.16 160.272 
L 259.34961 153.936 
L 282.539221 157.104 
L 305.728831 153.936 
L 328.918442 153.936 
L 352.108052 150.768 
L 375.297662 155.52 
L 398.487273 152.352 
L 398.487273 147.6 
L 398.487273 147.6 
L 375.297662 149.184 
L 352.108052 146.016 
L 328.918442 147.6 
L 305.728831 149.184 
L 282.539221 150.768 
L 259.34961 149.184 
L 236.16 153.936 
L 212.97039 147.6 
L 189.780779 138.096 
L 166.591169 153.936 
L 143.401558 152.352 
L 120.211948 120.672 
L 97.022338 93.744 
L 73.832727 84.24 
z
" style="fill:#bcbd22;"/>
   </g>
   <g id="PolyCollection_30">
    <path clip-path="url(#pd13e30956d)" d="M 73.832727 82.656 
L 73.832727 84.24 
L 97.022338 93.744 
L 120.211948 120.672 
L 143.401558 152.352 
L 166.591169 153.936 
L 189.780779 138.096 
L 212.97039 147.6 
L 236.16 153.936 
L 259.34961 149.184 
L 282.539221 150.768 
L 305.728831 149.184 
L 328.918442 147.6 
L 352.108052 146.016 
L 375.297662 149.184 
L 398.487273 147.6 
L 398.487273 142.848 
L 398.487273 142.848 
L 375.297662 142.848 
L 352.108052 141.264 
L 328.918442 141.264 
L 305.728831 144.432 
L 282.539221 144.432 
L 259.34961 144.432 
L 236.16 147.6 
L 212.97039 142.848 
L 189.780779 131.76 
L 166.591169 149.184 
L 143.401558 149.184 
L 120.211948 112.752 
L 97.022338 88.992 
L 73.832727 82.656 
z
" style="fill:#17becf;"/>
   </g>
   <g id="PolyCollection_31">
    <path clip-path="url(#pd13e30956d)" d="M 73.832727 81.072 
L 73.832727 82.656 
L 97.022338 88.992 
L 120.211948 112.752 
L 143.401558 149.184 
L 166.591169 149.184 
L 189.780779 131.76 
L 212.97039 142.848 
L 236.16 147.6 
L 259.34961 144.432 
L 282.539221 144.432 
L 305.728831 144.432 
L 328.918442 141.264 
L 352.108052 141.264 
L 375.297662 142.848 
L 398.487273 142.848 
L 398.487273 139.68 
L 398.487273 139.68 
L 375.297662 139.68 
L 352.108052 138.096 
L 328.918442 138.096 
L 305.728831 141.264 
L 282.539221 141.264 
L 259.34961 141.264 
L 236.16 144.432 
L 212.97039 139.68 
L 189.780779 128.592 
L 166.591169 146.016 
L 143.401558 146.016 
L 120.211948 109.584 
L 97.022338 85.824 
L 73.832727 81.072 
z
" style="fill:#1f77b4;"/>
   </g>
   <g id="PolyCollection_32">
    <path clip-path="url(#pd13e30956d)" d="M 73.832727 77.904 
L 73.832727 81.072 
L 97.022338 85.824 
L 120.211948 109.584 
L 143.401558 146.016 
L 166.591169 146.016 
L 189.780779 128.592 
L 212.97039 139.68 
L 236.16 144.432 
L 259.34961 141.264 
L 282.539221 141.264 
L 305.728831 141.264 
L 328.918442 138.096 
L 352.108052 138.096 
L 375.297662 139.68 
L 398.487273 139.68 
L 398.487273 134.928 
L 398.487273 134.928 
L 375.297662 133.344 
L 352.108052 131.76 
L 328.918442 133.344 
L 305.728831 134.928 
L 282.539221 136.512 
L 259.34961 138.096 
L 236.16 139.68 
L 212.97039 136.512 
L 189.780779 127.008 
L 166.591169 139.68 
L 143.401558 139.68 
L 120.211948 104.832 
L 97.022338 84.24 
L 73.832727 77.904 
z
" style="fill:#ff7f0e;"/>
   </g>
   <g id="PolyCollection_33">
    <path clip-path="url(#pd13e30956d)" d="M 73.832727 76.32 
L 73.832727 77.904 
L 97.022338 84.24 
L 120.211948 104.832 
L 143.401558 139.68 
L 166.591169 139.68 
L 189.780779 127.008 
L 212.97039 136.512 
L 236.16 139.68 
L 259.34961 138.096 
L 282.539221 136.512 
L 305.728831 134.928 
L 328.918442 133.344 
L 352.108052 131.76 
L 375.297662 133.344 
L 398.487273 134.928 
L 398.487273 128.592 
L 398.487273 128.592 
L 375.297662 128.592 
L 352.108052 125.424 
L 328.918442 128.592 
L 305.728831 128.592 
L 282.539221 131.76 
L 259.34961 131.76 
L 236.16 134.928 
L 212.97039 130.176 
L 189.780779 122.256 
L 166.591169 136.512 
L 143.401558 134.928 
L 120.211948 98.496 
L 97.022338 79.488 
L 73.832727 76.32 
z
" style="fill:#2ca02c;"/>
   </g>
   <g id="PolyCollection_34">
    <path clip-path="url(#pd13e30956d)" d="M 73.832727 74.736 
L 73.832727 76.32 
L 97.022338 79.488 
L 120.211948 98.496 
L 143.401558 134.928 
L 166.591169 136.512 
L 189.780779 122.256 
L 212.97039 130.176 
L 236.16 134.928 
L 259.34961 131.76 
L 282.539221 131.76 
L 305.728831 128.592 
L 328.918442 128.592 
L 352.108052 125.424 
L 375.297662 128.592 
L 398.487273 128.592 
L 398.487273 122.256 
L 398.487273 122.256 
L 375.297662 123.84 
L 352.108052 119.088 
L 328.918442 123.84 
L 305.728831 122.256 
L 282.539221 127.008 
L 259.34961 125.424 
L 236.16 130.176 
L 212.97039 123.84 
L 189.780779 117.504 
L 166.591169 130.176 
L 143.401558 130.176 
L 120.211948 92.16 
L 97.022338 74.736 
L 73.832727 74.736 
z
" style="fill:#d62728;"/>
   </g>
   <g id="PolyCollection_35">
    <path clip-path="url(#pd13e30956d)" d="M 73.832727 73.152 
L 73.832727 74.736 
L 97.022338 74.736 
L 120.211948 92.16 
L 143.401558 130.176 
L 166.591169 130.176 
L 189.780779 117.504 
L 212.97039 123.84 
L 236.16 130.176 
L 259.34961 125.424 
L 282.539221 127.008 
L 305.728831 122.256 
L 328.918442 123.84 
L 352.108052 119.088 
L 375.297662 123.84 
L 398.487273 122.256 
L 398.487273 117.504 
L 398.487273 117.504 
L 375.297662 117.504 
L 352.108052 114.336 
L 328.918442 117.504 
L 305.728831 117.504 
L 282.539221 120.672 
L 259.34961 120.672 
L 236.16 123.84 
L 212.97039 115.92 
L 189.780779 108 
L 166.591169 117.504 
L 143.401558 112.752 
L 120.211948 82.656 
L 97.022338 69.984 
L 73.832727 73.152 
z
" style="fill:#9467bd;"/>
   </g>
   <g id="PolyCollection_36">
    <path clip-path="url(#pd13e30956d)" d="M 73.832727 71.568 
L 73.832727 73.152 
L 97.022338 69.984 
L 120.211948 82.656 
L 143.401558 112.752 
L 166.591169 117.504 
L 189.780779 108 
L 212.97039 115.92 
L 236.16 123.84 
L 259.34961 120.672 
L 282.539221 120.672 
L 305.728831 117.504 
L 328.918442 117.504 
L 352.108052 114.336 
L 375.297662 117.504 
L 398.487273 117.504 
L 398.487273 111.168 
L 398.487273 111.168 
L 375.297662 112.752 
L 352.108052 108 
L 328.918442 112.752 
L 305.728831 111.168 
L 282.539221 115.92 
L 259.34961 117.504 
L 236.16 109.584 
L 212.97039 109.584 
L 189.780779 103.248 
L 166.591169 111.168 
L 143.401558 108 
L 120.211948 76.32 
L 97.022338 65.232 
L 73.832727 71.568 
z
" style="fill:#8c564b;"/>
   </g>
   <g id="PolyCollection_37">
    <path clip-path="url(#pd13e30956d)" d="M 73.832727 69.984 
L 73.832727 71.568 
L 97.022338 65.232 
L 120.211948 76.32 
L 143.401558 108 
L 166.591169 111.168 
L 189.780779 103.248 
L 212.97039 109.584 
L 236.16 109.584 
L 259.34961 117.504 
L 282.539221 115.92 
L 305.728831 111.168 
L 328.918442 112.752 
L 352.108052 108 
L 375.297662 112.752 
L 398.487273 111.168 
L 398.487273 104.832 
L 398.487273 104.832 
L 375.297662 108 
L 352.108052 101.664 
L 328.918442 108 
L 305.728831 104.832 
L 282.539221 111.168 
L 259.34961 111.168 
L 236.16 104.832 
L 212.97039 103.248 
L 189.780779 98.496 
L 166.591169 104.832 
L 143.401558 103.248 
L 120.211948 69.984 
L 97.022338 60.48 
L 73.832727 69.984 
z
" style="fill:#e377c2;"/>
   </g>
   <g id="PolyCollection_38">
    <path clip-path="url(#pd13e30956d)" d="M 73.832727 69.984 
L 73.832727 69.984 
L 97.022338 60.48 
L 120.211948 69.984 
L 143.401558 103.248 
L 166.591169 104.832 
L 189.780779 98.496 
L 212.97039 103.248 
L 236.16 104.832 
L 259.34961 111.168 
L 282.539221 111.168 
L 305.728831 104.832 
L 328.918442 108 
L 352.108052 101.664 
L 375.297662 108 
L 398.487273 104.832 
L 398.487273 98.496 
L 398.487273 98.496 
L 375.297662 103.248 
L 352.108052 95.328 
L 328.918442 103.248 
L 305.728831 98.496 
L 282.539221 106.416 
L 259.34961 104.832 
L 236.16 100.08 
L 212.97039 96.912 
L 189.780779 93.744 
L 166.591169 98.496 
L 143.401558 95.328 
L 120.211948 60.48 
L 97.022338 58.896 
L 73.832727 69.984 
z
" style="fill:#7f7f7f;"/>
   </g>
   <g id="PolyCollection_39">
    <path clip-path="url(#pd13e30956d)" d="M 73.832727 69.984 
L 73.832727 69.984 
L 97.022338 58.896 
L 120.211948 60.48 
L 143.401558 95.328 
L 166.591169 98.496 
L 189.780779 93.744 
L 212.97039 96.912 
L 236.16 100.08 
L 259.34961 104.832 
L 282.539221 106.416 
L 305.728831 98.496 
L 328.918442 103.248 
L 352.108052 95.328 
L 375.297662 103.248 
L 398.487273 98.496 
L 398.487273 93.744 
L 398.487273 93.744 
L 375.297662 96.912 
L 352.108052 90.576 
L 328.918442 96.912 
L 305.728831 93.744 
L 282.539221 100.08 
L 259.34961 100.08 
L 236.16 93.744 
L 212.97039 92.16 
L 189.780779 87.408 
L 166.591169 93.744 
L 143.401558 88.992 
L 120.211948 55.728 
L 97.022338 58.896 
L 73.832727 69.984 
z
" style="fill:#bcbd22;"/>
   </g>
   <g id="PolyCollection_40">
    <path clip-path="url(#pd13e30956d)" d="M 73.832727 69.984 
L 73.832727 69.984 
L 97.022338 58.896 
L 120.211948 55.728 
L 143.401558 88.992 
L 166.591169 93.744 
L 189.780779 87.408 
L 212.97039 92.16 
L 236.16 93.744 
L 259.34961 100.08 
L 282.539221 100.08 
L 305.728831 93.744 
L 328.918442 96.912 
L 352.108052 90.576 
L 375.297662 96.912 
L 398.487273 93.744 
L 398.487273 88.992 
L 398.487273 88.992 
L 375.297662 90.576 
L 352.108052 85.824 
L 328.918442 90.576 
L 305.728831 88.992 
L 282.539221 93.744 
L 259.34961 95.328 
L 236.16 87.408 
L 212.97039 87.408 
L 189.780779 81.072 
L 166.591169 88.992 
L 143.401558 82.656 
L 120.211948 54.144 
L 97.022338 58.896 
L 73.832727 69.984 
z
" style="fill:#17becf;"/>
   </g>
   <g id="PolyCollection_41">
    <path clip-path="url(#pd13e30956d)" d="M 73.832727 69.984 
L 73.832727 69.984 
L 97.022338 58.896 
L 120.211948 54.144 
L 143.401558 82.656 
L 166.591169 88.992 
L 189.780779 81.072 
L 212.97039 87.408 
L 236.16 87.408 
L 259.34961 95.328 
L 282.539221 93.744 
L 305.728831 88.992 
L 328.918442 90.576 
L 352.108052 85.824 
L 375.297662 90.576 
L 398.487273 88.992 
L 398.487273 84.24 
L 398.487273 84.24 
L 375.297662 84.24 
L 352.108052 81.072 
L 328.918442 84.24 
L 305.728831 84.24 
L 282.539221 90.576 
L 259.34961 88.992 
L 236.16 81.072 
L 212.97039 81.072 
L 189.780779 79.488 
L 166.591169 88.992 
L 143.401558 82.656 
L 120.211948 54.144 
L 97.022338 58.896 
L 73.832727 69.984 
z
" style="fill:#1f77b4;"/>
   </g>
   <g id="PolyCollection_42">
    <path clip-path="url(#pd13e30956d)" d="M 73.832727 69.984 
L 73.832727 69.984 
L 97.022338 58.896 
L 120.211948 54.144 
L 143.401558 82.656 
L 166.591169 88.992 
L 189.780779 79.488 
L 212.97039 81.072 
L 236.16 81.072 
L 259.34961 88.992 
L 282.539221 90.576 
L 305.728831 84.24 
L 328.918442 84.24 
L 352.108052 81.072 
L 375.297662 84.24 
L 398.487273 84.24 
L 398.487273 77.904 
L 398.487273 77.904 
L 375.297662 79.488 
L 352.108052 74.736 
L 328.918442 79.488 
L 305.728831 77.904 
L 282.539221 82.656 
L 259.34961 81.072 
L 236.16 81.072 
L 212.97039 81.072 
L 189.780779 79.488 
L 166.591169 88.992 
L 143.401558 82.656 
L 120.211948 54.144 
L 97.022338 58.896 
L 73.832727 69.984 
z
" style="fill:#ff7f0e;"/>
   </g>
   <g id="matplotlib.axis_1">
    <g id="xtick_1">
     <g id="line2d_1">
      <defs>
       <path d="M 0 0 
L 0 3.5 
" id="m6a28f8f650" style="stroke:#000000;stroke-width:0.8;"/>
      </defs>
      <g>
       <use style="stroke:#000000;stroke-width:0.8;" x="73.832727" xlink:href="#m6a28f8f650" y="307.584"/>
      </g>
     </g>
     <g id="text_1">
      <!-- 0 -->
      <defs>
       <path d="M 31.78125 66.40625 
Q 24.171875 66.40625 20.328125 58.90625 
Q 16.5 51.421875 16.5 36.375 
Q 16.5 21.390625 20.328125 13.890625 
Q 24.171875 6.390625 31.78125 6.390625 
Q 39.453125 6.390625 43.28125 13.890625 
Q 47.125 21.390625 47.125 36.375 
Q 47.125 51.421875 43.28125 58.90625 
Q 39.453125 66.40625 31.78125 66.40625 
z
M 31.78125 74.21875 
Q 44.046875 74.21875 50.515625 64.515625 
Q 56.984375 54.828125 56.984375 36.375 
Q 56.984375 17.96875 50.515625 8.265625 
Q 44.046875 -1.421875 31.78125 -1.421875 
Q 19.53125 -1.421875 13.0625 8.265625 
Q 6.59375 17.96875 6.59375 36.375 
Q 6.59375 54.828125 13.0625 64.515625 
Q 19.53125 74.21875 31.78125 74.21875 
z
" id="DejaVuSans-30"/>
      </defs>
      <g transform="translate(70.651477 322.182437)scale(0.1 -0.1)">
       <use xlink:href="#DejaVuSans-30"/>
      </g>
     </g>
    </g>
    <g id="xtick_2">
     <g id="line2d_2">
      <g>
       <use style="stroke:#000000;stroke-width:0.8;" x="120.211948" xlink:href="#m6a28f8f650" y="307.584"/>
      </g>
     </g>
     <g id="text_2">
      <!-- 2 -->
      <defs>
       <path d="M 19.1875 8.296875 
L 53.609375 8.296875 
L 53.609375 0 
L 7.328125 0 
L 7.328125 8.296875 
Q 12.9375 14.109375 22.625 23.890625 
Q 32.328125 33.6875 34.8125 36.53125 
Q 39.546875 41.84375 41.421875 45.53125 
Q 43.3125 49.21875 43.3125 52.78125 
Q 43.3125 58.59375 39.234375 62.25 
Q 35.15625 65.921875 28.609375 65.921875 
Q 23.96875 65.921875 18.8125 64.3125 
Q 13.671875 62.703125 7.8125 59.421875 
L 7.8125 69.390625 
Q 13.765625 71.78125 18.9375 73 
Q 24.125 74.21875 28.421875 74.21875 
Q 39.75 74.21875 46.484375 68.546875 
Q 53.21875 62.890625 53.21875 53.421875 
Q 53.21875 48.921875 51.53125 44.890625 
Q 49.859375 40.875 45.40625 35.40625 
Q 44.1875 33.984375 37.640625 27.21875 
Q 31.109375 20.453125 19.1875 8.296875 
z
" id="DejaVuSans-32"/>
      </defs>
      <g transform="translate(117.030698 322.182437)scale(0.1 -0.1)">
       <use xlink:href="#DejaVuSans-32"/>
      </g>
     </g>
    </g>
    <g id="xtick_3">
     <g id="line2d_3">
      <g>
       <use style="stroke:#000000;stroke-width:0.8;" x="166.591169" xlink:href="#m6a28f8f650" y="307.584"/>
      </g>
     </g>
     <g id="text_3">
      <!-- 4 -->
      <defs>
       <path d="M 37.796875 64.3125 
L 12.890625 25.390625 
L 37.796875 25.390625 
z
M 35.203125 72.90625 
L 47.609375 72.90625 
L 47.609375 25.390625 
L 58.015625 25.390625 
L 58.015625 17.1875 
L 47.609375 17.1875 
L 47.609375 0 
L 37.796875 0 
L 37.796875 17.1875 
L 4.890625 17.1875 
L 4.890625 26.703125 
z
" id="DejaVuSans-34"/>
      </defs>
      <g transform="translate(163.409919 322.182437)scale(0.1 -0.1)">
       <use xlink:href="#DejaVuSans-34"/>
      </g>
     </g>
    </g>
    <g id="xtick_4">
     <g id="line2d_4">
      <g>
       <use style="stroke:#000000;stroke-width:0.8;" x="212.97039" xlink:href="#m6a28f8f650" y="307.584"/>
      </g>
     </g>
     <g id="text_4">
      <!-- 6 -->
      <defs>
       <path d="M 33.015625 40.375 
Q 26.375 40.375 22.484375 35.828125 
Q 18.609375 31.296875 18.609375 23.390625 
Q 18.609375 15.53125 22.484375 10.953125 
Q 26.375 6.390625 33.015625 6.390625 
Q 39.65625 6.390625 43.53125 10.953125 
Q 47.40625 15.53125 47.40625 23.390625 
Q 47.40625 31.296875 43.53125 35.828125 
Q 39.65625 40.375 33.015625 40.375 
z
M 52.59375 71.296875 
L 52.59375 62.3125 
Q 48.875 64.0625 45.09375 64.984375 
Q 41.3125 65.921875 37.59375 65.921875 
Q 27.828125 65.921875 22.671875 59.328125 
Q 17.53125 52.734375 16.796875 39.40625 
Q 19.671875 43.65625 24.015625 45.921875 
Q 28.375 48.1875 33.59375 48.1875 
Q 44.578125 48.1875 50.953125 41.515625 
Q 57.328125 34.859375 57.328125 23.390625 
Q 57.328125 12.15625 50.6875 5.359375 
Q 44.046875 -1.421875 33.015625 -1.421875 
Q 20.359375 -1.421875 13.671875 8.265625 
Q 6.984375 17.96875 6.984375 36.375 
Q 6.984375 53.65625 15.1875 63.9375 
Q 23.390625 74.21875 37.203125 74.21875 
Q 40.921875 74.21875 44.703125 73.484375 
Q 48.484375 72.75 52.59375 71.296875 
z
" id="DejaVuSans-36"/>
      </defs>
      <g transform="translate(209.78914 322.182437)scale(0.1 -0.1)">
       <use xlink:href="#DejaVuSans-36"/>
      </g>
     </g>
    </g>
    <g id="xtick_5">
     <g id="line2d_5">
      <g>
       <use style="stroke:#000000;stroke-width:0.8;" x="259.34961" xlink:href="#m6a28f8f650" y="307.584"/>
      </g>
     </g>
     <g id="text_5">
      <!-- 8 -->
      <defs>
       <path d="M 31.78125 34.625 
Q 24.75 34.625 20.71875 30.859375 
Q 16.703125 27.09375 16.703125 20.515625 
Q 16.703125 13.921875 20.71875 10.15625 
Q 24.75 6.390625 31.78125 6.390625 
Q 38.8125 6.390625 42.859375 10.171875 
Q 46.921875 13.96875 46.921875 20.515625 
Q 46.921875 27.09375 42.890625 30.859375 
Q 38.875 34.625 31.78125 34.625 
z
M 21.921875 38.8125 
Q 15.578125 40.375 12.03125 44.71875 
Q 8.5 49.078125 8.5 55.328125 
Q 8.5 64.0625 14.71875 69.140625 
Q 20.953125 74.21875 31.78125 74.21875 
Q 42.671875 74.21875 48.875 69.140625 
Q 55.078125 64.0625 55.078125 55.328125 
Q 55.078125 49.078125 51.53125 44.71875 
Q 48 40.375 41.703125 38.8125 
Q 48.828125 37.15625 52.796875 32.3125 
Q 56.78125 27.484375 56.78125 20.515625 
Q 56.78125 9.90625 50.3125 4.234375 
Q 43.84375 -1.421875 31.78125 -1.421875 
Q 19.734375 -1.421875 13.25 4.234375 
Q 6.78125 9.90625 6.78125 20.515625 
Q 6.78125 27.484375 10.78125 32.3125 
Q 14.796875 37.15625 21.921875 38.8125 
z
M 18.3125 54.390625 
Q 18.3125 48.734375 21.84375 45.5625 
Q 25.390625 42.390625 31.78125 42.390625 
Q 38.140625 42.390625 41.71875 45.5625 
Q 45.3125 48.734375 45.3125 54.390625 
Q 45.3125 60.0625 41.71875 63.234375 
Q 38.140625 66.40625 31.78125 66.40625 
Q 25.390625 66.40625 21.84375 63.234375 
Q 18.3125 60.0625 18.3125 54.390625 
z
" id="DejaVuSans-38"/>
      </defs>
      <g transform="translate(256.16836 322.182437)scale(0.1 -0.1)">
       <use xlink:href="#DejaVuSans-38"/>
      </g>
     </g>
    </g>
    <g id="xtick_6">
     <g id="line2d_6">
      <g>
       <use style="stroke:#000000;stroke-width:0.8;" x="305.728831" xlink:href="#m6a28f8f650" y="307.584"/>
      </g>
     </g>
     <g id="text_6">
      <!-- 10 -->
      <defs>
       <path d="M 12.40625 8.296875 
L 28.515625 8.296875 
L 28.515625 63.921875 
L 10.984375 60.40625 
L 10.984375 69.390625 
L 28.421875 72.90625 
L 38.28125 72.90625 
L 38.28125 8.296875 
L 54.390625 8.296875 
L 54.390625 0 
L 12.40625 0 
z
" id="DejaVuSans-31"/>
      </defs>
      <g transform="translate(299.366331 322.182437)scale(0.1 -0.1)">
       <use xlink:href="#DejaVuSans-31"/>
       <use x="63.623047" xlink:href="#DejaVuSans-30"/>
      </g>
     </g>
    </g>
    <g id="xtick_7">
     <g id="line2d_7">
      <g>
       <use style="stroke:#000000;stroke-width:0.8;" x="352.108052" xlink:href="#m6a28f8f650" y="307.584"/>
      </g>
     </g>
     <g id="text_7">
      <!-- 12 -->
      <g transform="translate(345.745552 322.182437)scale(0.1 -0.1)">
       <use xlink:href="#DejaVuSans-31"/>
       <use x="63.623047" xlink:href="#DejaVuSans-32"/>
      </g>
     </g>
    </g>
    <g id="xtick_8">
     <g id="line2d_8">
      <g>
       <use style="stroke:#000000;stroke-width:0.8;" x="398.487273" xlink:href="#m6a28f8f650" y="307.584"/>
      </g>
     </g>
     <g id="text_8">
      <!-- 14 -->
      <g transform="translate(392.124773 322.182437)scale(0.1 -0.1)">
       <use xlink:href="#DejaVuSans-31"/>
       <use x="63.623047" xlink:href="#DejaVuSans-34"/>
      </g>
     </g>
    </g>
    <g id="text_9">
     <!-- Generacje -->
     <defs>
      <path d="M 59.515625 10.40625 
L 59.515625 29.984375 
L 43.40625 29.984375 
L 43.40625 38.09375 
L 69.28125 38.09375 
L 69.28125 6.78125 
Q 63.578125 2.734375 56.6875 0.65625 
Q 49.8125 -1.421875 42 -1.421875 
Q 24.90625 -1.421875 15.25 8.5625 
Q 5.609375 18.5625 5.609375 36.375 
Q 5.609375 54.25 15.25 64.234375 
Q 24.90625 74.21875 42 74.21875 
Q 49.125 74.21875 55.546875 72.453125 
Q 61.96875 70.703125 67.390625 67.28125 
L 67.390625 56.78125 
Q 61.921875 61.421875 55.765625 63.765625 
Q 49.609375 66.109375 42.828125 66.109375 
Q 29.4375 66.109375 22.71875 58.640625 
Q 16.015625 51.171875 16.015625 36.375 
Q 16.015625 21.625 22.71875 14.15625 
Q 29.4375 6.6875 42.828125 6.6875 
Q 48.046875 6.6875 52.140625 7.59375 
Q 56.25 8.5 59.515625 10.40625 
z
" id="DejaVuSans-47"/>
      <path d="M 56.203125 29.59375 
L 56.203125 25.203125 
L 14.890625 25.203125 
Q 15.484375 15.921875 20.484375 11.0625 
Q 25.484375 6.203125 34.421875 6.203125 
Q 39.59375 6.203125 44.453125 7.46875 
Q 49.3125 8.734375 54.109375 11.28125 
L 54.109375 2.78125 
Q 49.265625 0.734375 44.1875 -0.34375 
Q 39.109375 -1.421875 33.890625 -1.421875 
Q 20.796875 -1.421875 13.15625 6.1875 
Q 5.515625 13.8125 5.515625 26.8125 
Q 5.515625 40.234375 12.765625 48.109375 
Q 20.015625 56 32.328125 56 
Q 43.359375 56 49.78125 48.890625 
Q 56.203125 41.796875 56.203125 29.59375 
z
M 47.21875 32.234375 
Q 47.125 39.59375 43.09375 43.984375 
Q 39.0625 48.390625 32.421875 48.390625 
Q 24.90625 48.390625 20.390625 44.140625 
Q 15.875 39.890625 15.1875 32.171875 
z
" id="DejaVuSans-65"/>
      <path d="M 54.890625 33.015625 
L 54.890625 0 
L 45.90625 0 
L 45.90625 32.71875 
Q 45.90625 40.484375 42.875 44.328125 
Q 39.84375 48.1875 33.796875 48.1875 
Q 26.515625 48.1875 22.3125 43.546875 
Q 18.109375 38.921875 18.109375 30.90625 
L 18.109375 0 
L 9.078125 0 
L 9.078125 54.6875 
L 18.109375 54.6875 
L 18.109375 46.1875 
Q 21.34375 51.125 25.703125 53.5625 
Q 30.078125 56 35.796875 56 
Q 45.21875 56 50.046875 50.171875 
Q 54.890625 44.34375 54.890625 33.015625 
z
" id="DejaVuSans-6e"/>
      <path d="M 41.109375 46.296875 
Q 39.59375 47.171875 37.8125 47.578125 
Q 36.03125 48 33.890625 48 
Q 26.265625 48 22.1875 43.046875 
Q 18.109375 38.09375 18.109375 28.8125 
L 18.109375 0 
L 9.078125 0 
L 9.078125 54.6875 
L 18.109375 54.6875 
L 18.109375 46.1875 
Q 20.953125 51.171875 25.484375 53.578125 
Q 30.03125 56 36.53125 56 
Q 37.453125 56 38.578125 55.875 
Q 39.703125 55.765625 41.0625 55.515625 
z
" id="DejaVuSans-72"/>
      <path d="M 34.28125 27.484375 
Q 23.390625 27.484375 19.1875 25 
Q 14.984375 22.515625 14.984375 16.5 
Q 14.984375 11.71875 18.140625 8.90625 
Q 21.296875 6.109375 26.703125 6.109375 
Q 34.1875 6.109375 38.703125 11.40625 
Q 43.21875 16.703125 43.21875 25.484375 
L 43.21875 27.484375 
z
M 52.203125 31.203125 
L 52.203125 0 
L 43.21875 0 
L 43.21875 8.296875 
Q 40.140625 3.328125 35.546875 0.953125 
Q 30.953125 -1.421875 24.3125 -1.421875 
Q 15.921875 -1.421875 10.953125 3.296875 
Q 6 8.015625 6 15.921875 
Q 6 25.140625 12.171875 29.828125 
Q 18.359375 34.515625 30.609375 34.515625 
L 43.21875 34.515625 
L 43.21875 35.40625 
Q 43.21875 41.609375 39.140625 45 
Q 35.0625 48.390625 27.6875 48.390625 
Q 23 48.390625 18.546875 47.265625 
Q 14.109375 46.140625 10.015625 43.890625 
L 10.015625 52.203125 
Q 14.9375 54.109375 19.578125 55.046875 
Q 24.21875 56 28.609375 56 
Q 40.484375 56 46.34375 49.84375 
Q 52.203125 43.703125 52.203125 31.203125 
z
" id="DejaVuSans-61"/>
      <path d="M 48.78125 52.59375 
L 48.78125 44.1875 
Q 44.96875 46.296875 41.140625 47.34375 
Q 37.3125 48.390625 33.40625 48.390625 
Q 24.65625 48.390625 19.8125 42.84375 
Q 14.984375 37.3125 14.984375 27.296875 
Q 14.984375 17.28125 19.8125 11.734375 
Q 24.65625 6.203125 33.40625 6.203125 
Q 37.3125 6.203125 41.140625 7.25 
Q 44.96875 8.296875 48.78125 10.40625 
L 48.78125 2.09375 
Q 45.015625 0.34375 40.984375 -0.53125 
Q 36.96875 -1.421875 32.421875 -1.421875 
Q 20.0625 -1.421875 12.78125 6.34375 
Q 5.515625 14.109375 5.515625 27.296875 
Q 5.515625 40.671875 12.859375 48.328125 
Q 20.21875 56 33.015625 56 
Q 37.15625 56 41.109375 55.140625 
Q 45.0625 54.296875 48.78125 52.59375 
z
" id="DejaVuSans-63"/>
      <path d="M 9.421875 54.6875 
L 18.40625 54.6875 
L 18.40625 -0.984375 
Q 18.40625 -11.421875 14.421875 -16.109375 
Q 10.453125 -20.796875 1.609375 -20.796875 
L -1.8125 -20.796875 
L -1.8125 -13.1875 
L 0.59375 -13.1875 
Q 5.71875 -13.1875 7.5625 -10.8125 
Q 9.421875 -8.453125 9.421875 -0.984375 
z
M 9.421875 75.984375 
L 18.40625 75.984375 
L 18.40625 64.59375 
L 9.421875 64.59375 
z
" id="DejaVuSans-6a"/>
     </defs>
     <g transform="translate(210.629531 335.860562)scale(0.1 -0.1)">
      <use xlink:href="#DejaVuSans-47"/>
      <use x="77.490234" xlink:href="#DejaVuSans-65"/>
      <use x="139.013672" xlink:href="#DejaVuSans-6e"/>
      <use x="202.392578" xlink:href="#DejaVuSans-65"/>
      <use x="263.916016" xlink:href="#DejaVuSans-72"/>
      <use x="305.029297" xlink:href="#DejaVuSans-61"/>
      <use x="366.308594" xlink:href="#DejaVuSans-63"/>
      <use x="421.289062" xlink:href="#DejaVuSans-6a"/>
      <use x="449.072266" xlink:href="#DejaVuSans-65"/>
     </g>
    </g>
   </g>
   <g id="matplotlib.axis_2">
    <g id="ytick_1">
     <g id="line2d_9">
      <defs>
       <path d="M 0 0 
L -3.5 0 
" id="mfb4b5cb858" style="stroke:#000000;stroke-width:0.8;"/>
      </defs>
      <g>
       <use style="stroke:#000000;stroke-width:0.8;" x="57.6" xlink:href="#mfb4b5cb858" y="307.584"/>
      </g>
     </g>
     <g id="text_10">
      <!-- 0 -->
      <g transform="translate(44.2375 311.383219)scale(0.1 -0.1)">
       <use xlink:href="#DejaVuSans-30"/>
      </g>
     </g>
    </g>
    <g id="ytick_2">
     <g id="line2d_10">
      <g>
       <use style="stroke:#000000;stroke-width:0.8;" x="57.6" xlink:href="#mfb4b5cb858" y="275.904"/>
      </g>
     </g>
     <g id="text_11">
      <!-- 20 -->
      <g transform="translate(37.875 279.703219)scale(0.1 -0.1)">
       <use xlink:href="#DejaVuSans-32"/>
       <use x="63.623047" xlink:href="#DejaVuSans-30"/>
      </g>
     </g>
    </g>
    <g id="ytick_3">
     <g id="line2d_11">
      <g>
       <use style="stroke:#000000;stroke-width:0.8;" x="57.6" xlink:href="#mfb4b5cb858" y="244.224"/>
      </g>
     </g>
     <g id="text_12">
      <!-- 40 -->
      <g transform="translate(37.875 248.023219)scale(0.1 -0.1)">
       <use xlink:href="#DejaVuSans-34"/>
       <use x="63.623047" xlink:href="#DejaVuSans-30"/>
      </g>
     </g>
    </g>
    <g id="ytick_4">
     <g id="line2d_12">
      <g>
       <use style="stroke:#000000;stroke-width:0.8;" x="57.6" xlink:href="#mfb4b5cb858" y="212.544"/>
      </g>
     </g>
     <g id="text_13">
      <!-- 60 -->
      <g transform="translate(37.875 216.343219)scale(0.1 -0.1)">
       <use xlink:href="#DejaVuSans-36"/>
       <use x="63.623047" xlink:href="#DejaVuSans-30"/>
      </g>
     </g>
    </g>
    <g id="ytick_5">
     <g id="line2d_13">
      <g>
       <use style="stroke:#000000;stroke-width:0.8;" x="57.6" xlink:href="#mfb4b5cb858" y="180.864"/>
      </g>
     </g>
     <g id="text_14">
      <!-- 80 -->
      <g transform="translate(37.875 184.663219)scale(0.1 -0.1)">
       <use xlink:href="#DejaVuSans-38"/>
       <use x="63.623047" xlink:href="#DejaVuSans-30"/>
      </g>
     </g>
    </g>
    <g id="ytick_6">
     <g id="line2d_14">
      <g>
       <use style="stroke:#000000;stroke-width:0.8;" x="57.6" xlink:href="#mfb4b5cb858" y="149.184"/>
      </g>
     </g>
     <g id="text_15">
      <!-- 100 -->
      <g transform="translate(31.5125 152.983219)scale(0.1 -0.1)">
       <use xlink:href="#DejaVuSans-31"/>
       <use x="63.623047" xlink:href="#DejaVuSans-30"/>
       <use x="127.246094" xlink:href="#DejaVuSans-30"/>
      </g>
     </g>
    </g>
    <g id="ytick_7">
     <g id="line2d_15">
      <g>
       <use style="stroke:#000000;stroke-width:0.8;" x="57.6" xlink:href="#mfb4b5cb858" y="117.504"/>
      </g>
     </g>
     <g id="text_16">
      <!-- 120 -->
      <g transform="translate(31.5125 121.303219)scale(0.1 -0.1)">
       <use xlink:href="#DejaVuSans-31"/>
       <use x="63.623047" xlink:href="#DejaVuSans-32"/>
       <use x="127.246094" xlink:href="#DejaVuSans-30"/>
      </g>
     </g>
    </g>
    <g id="ytick_8">
     <g id="line2d_16">
      <g>
       <use style="stroke:#000000;stroke-width:0.8;" x="57.6" xlink:href="#mfb4b5cb858" y="85.824"/>
      </g>
     </g>
     <g id="text_17">
      <!-- 140 -->
      <g transform="translate(31.5125 89.623219)scale(0.1 -0.1)">
       <use xlink:href="#DejaVuSans-31"/>
       <use x="63.623047" xlink:href="#DejaVuSans-34"/>
       <use x="127.246094" xlink:href="#DejaVuSans-30"/>
      </g>
     </g>
    </g>
    <g id="ytick_9">
     <g id="line2d_17">
      <g>
       <use style="stroke:#000000;stroke-width:0.8;" x="57.6" xlink:href="#mfb4b5cb858" y="54.144"/>
      </g>
     </g>
     <g id="text_18">
      <!-- 160 -->
      <g transform="translate(31.5125 57.943219)scale(0.1 -0.1)">
       <use xlink:href="#DejaVuSans-31"/>
       <use x="63.623047" xlink:href="#DejaVuSans-36"/>
       <use x="127.246094" xlink:href="#DejaVuSans-30"/>
      </g>
     </g>
    </g>
    <g id="text_19">
     <!-- Rozmiar gatunkw -->
     <defs>
      <path d="M 44.390625 34.1875 
Q 47.5625 33.109375 50.5625 29.59375 
Q 53.5625 26.078125 56.59375 19.921875 
L 66.609375 0 
L 56 0 
L 46.6875 18.703125 
Q 43.0625 26.03125 39.671875 28.421875 
Q 36.28125 30.8125 30.421875 30.8125 
L 19.671875 30.8125 
L 19.671875 0 
L 9.8125 0 
L 9.8125 72.90625 
L 32.078125 72.90625 
Q 44.578125 72.90625 50.734375 67.671875 
Q 56.890625 62.453125 56.890625 51.90625 
Q 56.890625 45.015625 53.6875 40.46875 
Q 50.484375 35.9375 44.390625 34.1875 
z
M 19.671875 64.796875 
L 19.671875 38.921875 
L 32.078125 38.921875 
Q 39.203125 38.921875 42.84375 42.21875 
Q 46.484375 45.515625 46.484375 51.90625 
Q 46.484375 58.296875 42.84375 61.546875 
Q 39.203125 64.796875 32.078125 64.796875 
z
" id="DejaVuSans-52"/>
      <path d="M 30.609375 48.390625 
Q 23.390625 48.390625 19.1875 42.75 
Q 14.984375 37.109375 14.984375 27.296875 
Q 14.984375 17.484375 19.15625 11.84375 
Q 23.34375 6.203125 30.609375 6.203125 
Q 37.796875 6.203125 41.984375 11.859375 
Q 46.1875 17.53125 46.1875 27.296875 
Q 46.1875 37.015625 41.984375 42.703125 
Q 37.796875 48.390625 30.609375 48.390625 
z
M 30.609375 56 
Q 42.328125 56 49.015625 48.375 
Q 55.71875 40.765625 55.71875 27.296875 
Q 55.71875 13.875 49.015625 6.21875 
Q 42.328125 -1.421875 30.609375 -1.421875 
Q 18.84375 -1.421875 12.171875 6.21875 
Q 5.515625 13.875 5.515625 27.296875 
Q 5.515625 40.765625 12.171875 48.375 
Q 18.84375 56 30.609375 56 
z
" id="DejaVuSans-6f"/>
      <path d="M 5.515625 54.6875 
L 48.1875 54.6875 
L 48.1875 46.484375 
L 14.40625 7.171875 
L 48.1875 7.171875 
L 48.1875 0 
L 4.296875 0 
L 4.296875 8.203125 
L 38.09375 47.515625 
L 5.515625 47.515625 
z
" id="DejaVuSans-7a"/>
      <path d="M 52 44.1875 
Q 55.375 50.25 60.0625 53.125 
Q 64.75 56 71.09375 56 
Q 79.640625 56 84.28125 50.015625 
Q 88.921875 44.046875 88.921875 33.015625 
L 88.921875 0 
L 79.890625 0 
L 79.890625 32.71875 
Q 79.890625 40.578125 77.09375 44.375 
Q 74.3125 48.1875 68.609375 48.1875 
Q 61.625 48.1875 57.5625 43.546875 
Q 53.515625 38.921875 53.515625 30.90625 
L 53.515625 0 
L 44.484375 0 
L 44.484375 32.71875 
Q 44.484375 40.625 41.703125 44.40625 
Q 38.921875 48.1875 33.109375 48.1875 
Q 26.21875 48.1875 22.15625 43.53125 
Q 18.109375 38.875 18.109375 30.90625 
L 18.109375 0 
L 9.078125 0 
L 9.078125 54.6875 
L 18.109375 54.6875 
L 18.109375 46.1875 
Q 21.1875 51.21875 25.484375 53.609375 
Q 29.78125 56 35.6875 56 
Q 41.65625 56 45.828125 52.96875 
Q 50 49.953125 52 44.1875 
z
" id="DejaVuSans-6d"/>
      <path d="M 9.421875 54.6875 
L 18.40625 54.6875 
L 18.40625 0 
L 9.421875 0 
z
M 9.421875 75.984375 
L 18.40625 75.984375 
L 18.40625 64.59375 
L 9.421875 64.59375 
z
" id="DejaVuSans-69"/>
      <path id="DejaVuSans-20"/>
      <path d="M 45.40625 27.984375 
Q 45.40625 37.75 41.375 43.109375 
Q 37.359375 48.484375 30.078125 48.484375 
Q 22.859375 48.484375 18.828125 43.109375 
Q 14.796875 37.75 14.796875 27.984375 
Q 14.796875 18.265625 18.828125 12.890625 
Q 22.859375 7.515625 30.078125 7.515625 
Q 37.359375 7.515625 41.375 12.890625 
Q 45.40625 18.265625 45.40625 27.984375 
z
M 54.390625 6.78125 
Q 54.390625 -7.171875 48.1875 -13.984375 
Q 42 -20.796875 29.203125 -20.796875 
Q 24.46875 -20.796875 20.265625 -20.09375 
Q 16.0625 -19.390625 12.109375 -17.921875 
L 12.109375 -9.1875 
Q 16.0625 -11.328125 19.921875 -12.34375 
Q 23.78125 -13.375 27.78125 -13.375 
Q 36.625 -13.375 41.015625 -8.765625 
Q 45.40625 -4.15625 45.40625 5.171875 
L 45.40625 9.625 
Q 42.625 4.78125 38.28125 2.390625 
Q 33.9375 0 27.875 0 
Q 17.828125 0 11.671875 7.65625 
Q 5.515625 15.328125 5.515625 27.984375 
Q 5.515625 40.671875 11.671875 48.328125 
Q 17.828125 56 27.875 56 
Q 33.9375 56 38.28125 53.609375 
Q 42.625 51.21875 45.40625 46.390625 
L 45.40625 54.6875 
L 54.390625 54.6875 
z
" id="DejaVuSans-67"/>
      <path d="M 18.3125 70.21875 
L 18.3125 54.6875 
L 36.8125 54.6875 
L 36.8125 47.703125 
L 18.3125 47.703125 
L 18.3125 18.015625 
Q 18.3125 11.328125 20.140625 9.421875 
Q 21.96875 7.515625 27.59375 7.515625 
L 36.8125 7.515625 
L 36.8125 0 
L 27.59375 0 
Q 17.1875 0 13.234375 3.875 
Q 9.28125 7.765625 9.28125 18.015625 
L 9.28125 47.703125 
L 2.6875 47.703125 
L 2.6875 54.6875 
L 9.28125 54.6875 
L 9.28125 70.21875 
z
" id="DejaVuSans-74"/>
      <path d="M 8.5 21.578125 
L 8.5 54.6875 
L 17.484375 54.6875 
L 17.484375 21.921875 
Q 17.484375 14.15625 20.5 10.265625 
Q 23.53125 6.390625 29.59375 6.390625 
Q 36.859375 6.390625 41.078125 11.03125 
Q 45.3125 15.671875 45.3125 23.6875 
L 45.3125 54.6875 
L 54.296875 54.6875 
L 54.296875 0 
L 45.3125 0 
L 45.3125 8.40625 
Q 42.046875 3.421875 37.71875 1 
Q 33.40625 -1.421875 27.6875 -1.421875 
Q 18.265625 -1.421875 13.375 4.4375 
Q 8.5 10.296875 8.5 21.578125 
z
M 31.109375 56 
z
" id="DejaVuSans-75"/>
      <path d="M 9.078125 75.984375 
L 18.109375 75.984375 
L 18.109375 31.109375 
L 44.921875 54.6875 
L 56.390625 54.6875 
L 27.390625 29.109375 
L 57.625 0 
L 45.90625 0 
L 18.109375 26.703125 
L 18.109375 0 
L 9.078125 0 
z
" id="DejaVuSans-6b"/>
      <path d="M 30.609375 48.390625 
Q 23.390625 48.390625 19.1875 42.75 
Q 14.984375 37.109375 14.984375 27.296875 
Q 14.984375 17.484375 19.15625 11.84375 
Q 23.34375 6.203125 30.609375 6.203125 
Q 37.796875 6.203125 41.984375 11.859375 
Q 46.1875 17.53125 46.1875 27.296875 
Q 46.1875 37.015625 41.984375 42.703125 
Q 37.796875 48.390625 30.609375 48.390625 
z
M 30.609375 56 
Q 42.328125 56 49.015625 48.375 
Q 55.71875 40.765625 55.71875 27.296875 
Q 55.71875 13.875 49.015625 6.21875 
Q 42.328125 -1.421875 30.609375 -1.421875 
Q 18.84375 -1.421875 12.171875 6.21875 
Q 5.515625 13.875 5.515625 27.296875 
Q 5.515625 40.765625 12.171875 48.375 
Q 18.84375 56 30.609375 56 
z
M 37.40625 79.984375 
L 47.125 79.984375 
L 31.21875 61.625 
L 23.734375 61.625 
z
" id="DejaVuSans-f3"/>
      <path d="M 4.203125 54.6875 
L 13.1875 54.6875 
L 24.421875 12.015625 
L 35.59375 54.6875 
L 46.1875 54.6875 
L 57.421875 12.015625 
L 68.609375 54.6875 
L 77.59375 54.6875 
L 63.28125 0 
L 52.6875 0 
L 40.921875 44.828125 
L 29.109375 0 
L 18.5 0 
z
" id="DejaVuSans-77"/>
     </defs>
     <g transform="translate(25.432812 221.228)rotate(-90)scale(0.1 -0.1)">
      <use xlink:href="#DejaVuSans-52"/>
      <use x="69.419922" xlink:href="#DejaVuSans-6f"/>
      <use x="130.601562" xlink:href="#DejaVuSans-7a"/>
      <use x="183.091797" xlink:href="#DejaVuSans-6d"/>
      <use x="280.503906" xlink:href="#DejaVuSans-69"/>
      <use x="308.287109" xlink:href="#DejaVuSans-61"/>
      <use x="369.566406" xlink:href="#DejaVuSans-72"/>
      <use x="410.679688" xlink:href="#DejaVuSans-20"/>
      <use x="442.466797" xlink:href="#DejaVuSans-67"/>
      <use x="505.943359" xlink:href="#DejaVuSans-61"/>
      <use x="567.222656" xlink:href="#DejaVuSans-74"/>
      <use x="606.431641" xlink:href="#DejaVuSans-75"/>
      <use x="669.810547" xlink:href="#DejaVuSans-6e"/>
      <use x="733.189453" xlink:href="#DejaVuSans-6b"/>
      <use x="791.052734" xlink:href="#DejaVuSans-f3"/>
      <use x="852.234375" xlink:href="#DejaVuSans-77"/>
     </g>
    </g>
   </g>
   <g id="patch_3">
    <path d="M 57.6 307.584 
L 57.6 41.472 
" style="fill:none;stroke:#000000;stroke-linecap:square;stroke-linejoin:miter;stroke-width:0.8;"/>
   </g>
   <g id="patch_4">
    <path d="M 414.72 307.584 
L 414.72 41.472 
" style="fill:none;stroke:#000000;stroke-linecap:square;stroke-linejoin:miter;stroke-width:0.8;"/>
   </g>
   <g id="patch_5">
    <path d="M 57.6 307.584 
L 414.72 307.584 
" style="fill:none;stroke:#000000;stroke-linecap:square;stroke-linejoin:miter;stroke-width:0.8;"/>
   </g>
   <g id="patch_6">
    <path d="M 57.6 41.472 
L 414.72 41.472 
" style="fill:none;stroke:#000000;stroke-linecap:square;stroke-linejoin:miter;stroke-width:0.8;"/>
   </g>
   <g id="text_20">
    <!-- Specjacja -->
    <defs>
     <path d="M 53.515625 70.515625 
L 53.515625 60.890625 
Q 47.90625 63.578125 42.921875 64.890625 
Q 37.9375 66.21875 33.296875 66.21875 
Q 25.25 66.21875 20.875 63.09375 
Q 16.5 59.96875 16.5 54.203125 
Q 16.5 49.359375 19.40625 46.890625 
Q 22.3125 44.4375 30.421875 42.921875 
L 36.375 41.703125 
Q 47.40625 39.59375 52.65625 34.296875 
Q 57.90625 29 57.90625 20.125 
Q 57.90625 9.515625 50.796875 4.046875 
Q 43.703125 -1.421875 29.984375 -1.421875 
Q 24.8125 -1.421875 18.96875 -0.25 
Q 13.140625 0.921875 6.890625 3.21875 
L 6.890625 13.375 
Q 12.890625 10.015625 18.65625 8.296875 
Q 24.421875 6.59375 29.984375 6.59375 
Q 38.421875 6.59375 43.015625 9.90625 
Q 47.609375 13.234375 47.609375 19.390625 
Q 47.609375 24.75 44.3125 27.78125 
Q 41.015625 30.8125 33.5 32.328125 
L 27.484375 33.5 
Q 16.453125 35.6875 11.515625 40.375 
Q 6.59375 45.0625 6.59375 53.421875 
Q 6.59375 63.09375 13.40625 68.65625 
Q 20.21875 74.21875 32.171875 74.21875 
Q 37.3125 74.21875 42.625 73.28125 
Q 47.953125 72.359375 53.515625 70.515625 
z
" id="DejaVuSans-53"/>
     <path d="M 18.109375 8.203125 
L 18.109375 -20.796875 
L 9.078125 -20.796875 
L 9.078125 54.6875 
L 18.109375 54.6875 
L 18.109375 46.390625 
Q 20.953125 51.265625 25.265625 53.625 
Q 29.59375 56 35.59375 56 
Q 45.5625 56 51.78125 48.09375 
Q 58.015625 40.1875 58.015625 27.296875 
Q 58.015625 14.40625 51.78125 6.484375 
Q 45.5625 -1.421875 35.59375 -1.421875 
Q 29.59375 -1.421875 25.265625 0.953125 
Q 20.953125 3.328125 18.109375 8.203125 
z
M 48.6875 27.296875 
Q 48.6875 37.203125 44.609375 42.84375 
Q 40.53125 48.484375 33.40625 48.484375 
Q 26.265625 48.484375 22.1875 42.84375 
Q 18.109375 37.203125 18.109375 27.296875 
Q 18.109375 17.390625 22.1875 11.75 
Q 26.265625 6.109375 33.40625 6.109375 
Q 40.53125 6.109375 44.609375 11.75 
Q 48.6875 17.390625 48.6875 27.296875 
z
" id="DejaVuSans-70"/>
    </defs>
    <g transform="translate(207.564375 35.472)scale(0.12 -0.12)">
     <use xlink:href="#DejaVuSans-53"/>
     <use x="63.476562" xlink:href="#DejaVuSans-70"/>
     <use x="126.953125" xlink:href="#DejaVuSans-65"/>
     <use x="188.476562" xlink:href="#DejaVuSans-63"/>
     <use x="243.457031" xlink:href="#DejaVuSans-6a"/>
     <use x="271.240234" xlink:href="#DejaVuSans-61"/>
     <use x="332.519531" xlink:href="#DejaVuSans-63"/>
     <use x="387.5" xlink:href="#DejaVuSans-6a"/>
     <use x="415.283203" xlink:href="#DejaVuSans-61"/>
    </g>
   </g>
  </g>
 </g>
 <defs>
  <clipPath id="pd13e30956d">
   <rect height="266.112" width="357.12" x="57.6" y="41.472"/>
  </clipPath>
 </defs>
</svg>
